<svg width="33" height="33" viewBox="0 0 33 33" fill="none" xmlns="http://www.w3.org/2000/svg">
<path fill-rule="evenodd" clip-rule="evenodd" d="M26.3281 7.21875H7.33582L5.71308 4.31007C5.53093 3.98359 5.18636 3.78125 4.8125 3.78125H2.75C2.18046 3.78125 1.71875 4.24296 1.71875 4.8125C1.71875 5.38204 2.18046 5.84375 2.75 5.84375H4.20695L5.8084 8.71427L9.50175 16.8862L9.50554 16.8946L9.83085 17.6143L6.12269 21.5697C5.85606 21.8541 5.7726 22.2645 5.90698 22.6305C6.04136 22.9964 6.37061 23.2553 6.75793 23.2996L10.1379 23.6859C14.3655 24.169 18.6345 24.169 22.8622 23.6859L26.2421 23.2996C26.808 23.2349 27.2143 22.7238 27.1496 22.1579C27.0849 21.592 26.5738 21.1858 26.0079 21.2504L22.628 21.6367C18.5559 22.1021 14.4441 22.1021 10.3721 21.6367L9.03072 21.4834L11.7524 18.5803C11.7787 18.5522 11.8031 18.5231 11.8257 18.493L12.8608 18.6277C14.3114 18.8164 15.7776 18.8534 17.2358 18.7381C20.6368 18.4691 23.7889 16.8507 25.9895 14.2437L26.7844 13.3021C26.8111 13.2705 26.8358 13.2373 26.8585 13.2027L28.3399 10.9451C29.3899 9.34495 28.2421 7.21875 26.3281 7.21875ZM11.9024 16.4231C11.6749 16.3935 11.4788 16.249 11.3831 16.0408L11.3812 16.0368L8.32802 9.28125H26.3281C26.6015 9.28125 26.7655 9.58499 26.6155 9.81359L25.1682 12.0192L24.4135 12.9133C22.5682 15.0994 19.925 16.4564 17.0732 16.682C15.7579 16.786 14.4353 16.7526 13.127 16.5824L11.9024 16.4231Z" fill="black"/>
<path d="M8.9375 25.4375C7.79842 25.4375 6.875 26.3609 6.875 27.5C6.875 28.6391 7.79842 29.5625 8.9375 29.5625C10.0766 29.5625 11 28.6391 11 27.5C11 26.3609 10.0766 25.4375 8.9375 25.4375Z" fill="black"/>
<path d="M22 27.5C22 26.3609 22.9234 25.4375 24.0625 25.4375C25.2016 25.4375 26.125 26.3609 26.125 27.5C26.125 28.6391 25.2016 29.5625 24.0625 29.5625C22.9234 29.5625 22 28.6391 22 27.5Z" fill="black"/>
</svg>
