<svg width="24" height="24" viewBox="0 0 24 24" fill="none" xmlns="http://www.w3.org/2000/svg">
<path d="M16.3514 9.55382C16.6443 9.26773 16.6443 8.80388 16.3514 8.51779C16.0585 8.2317 15.5836 8.2317 15.2907 8.51779L12.2855 11.4532L9.28034 8.51779C8.98745 8.2317 8.51257 8.2317 8.21968 8.51779C7.92679 8.80388 7.92679 9.26773 8.21968 9.55382L11.2249 12.4892L8.21967 15.4246C7.92678 15.7107 7.92678 16.1746 8.21967 16.4607C8.51256 16.7468 8.98744 16.7468 9.28033 16.4607L12.2855 13.5252L15.2907 16.4607C15.5836 16.7468 16.0585 16.7468 16.3514 16.4607C16.6443 16.1746 16.6443 15.7107 16.3514 15.4246L13.3462 12.4892L16.3514 9.55382Z" fill="black"/>
</svg>
