<svg width="36" height="41" viewBox="0 0 36 41" fill="none" xmlns="http://www.w3.org/2000/svg">
<path fill-rule="evenodd" clip-rule="evenodd" d="M17.7693 31.8365C17.9569 31.9677 18.1575 32.0257 18.3525 32.0229C18.5475 32.0257 18.7481 31.9677 18.9358 31.8365L20.6007 30.6728C23.866 28.3907 27.8594 28.018 31.3949 29.6653C32.6992 30.273 34.1179 29.1542 34.1179 27.5179V7.60062C34.1179 6.61329 33.6019 5.72543 32.8149 5.35874C28.2611 3.23693 23.1177 3.71701 18.9121 6.6564L18.3525 7.04747L17.793 6.6564C13.5874 3.71701 8.44391 3.23693 3.89016 5.35874C3.10319 5.72543 2.58716 6.61329 2.58716 7.60062V27.5179C2.58716 29.1542 4.00588 30.273 5.31012 29.6653C8.84567 28.018 12.8391 28.3907 16.1043 30.6728L17.7693 31.8365ZM4.78698 7.70111V27.1535C8.88713 25.3631 13.4716 25.8444 17.2361 28.4755L17.2526 28.4871V9.26708L16.6612 8.85373C13.0696 6.34352 8.68261 5.91928 4.78698 7.70111ZM19.4689 28.4755L19.4524 28.4871V9.26708L20.0439 8.85373C23.6354 6.34352 28.0224 5.91928 31.9181 7.70111V27.1535C27.8179 25.3631 23.2335 25.8444 19.4689 28.4755Z" fill="black"/>
<path d="M14.3564 32.5305C11.3883 30.5136 7.71815 30.5136 4.75008 32.5305L4.5994 32.6329C4.07469 32.9894 3.89745 33.7739 4.20353 34.3852C4.50962 34.9964 5.18311 35.2028 5.70783 34.8463L5.8585 34.7439C8.14164 33.1925 10.9649 33.1925 13.248 34.7439L14.8425 35.8274C17.0115 37.3012 19.6936 37.3012 21.8625 35.8274L23.4571 34.7439C25.7402 33.1925 28.5634 33.1925 30.8465 34.7439L30.9972 34.8463C31.5219 35.2028 32.1954 34.9964 32.5015 34.3852C32.8076 33.7739 32.6304 32.9894 32.1056 32.6329L31.955 32.5305C28.9869 30.5136 25.3167 30.5136 22.3486 32.5305L20.7541 33.614C19.2701 34.6224 17.435 34.6224 15.9509 33.614L14.3564 32.5305Z" fill="black"/>
</svg>
